<svg width="73" height="73" viewBox="0 0 73 73" fill="none" xmlns="http://www.w3.org/2000/svg">
<path d="M31.7725 1.4288C34.8025 0.190899 38.1975 0.190899 41.2275 1.4288L57.8975 8.23837C60.9662 9.49206 63.4117 11.9135 64.6953 14.9698L71.5098 31.1974C72.8097 34.293 72.8097 37.7814 71.5098 40.877L64.6953 57.1046C63.4117 60.1609 60.9662 62.5823 57.8975 63.836L41.2275 70.6456C38.1975 71.8835 34.8025 71.8835 31.7725 70.6456L15.1025 63.836C12.0338 62.5823 9.5883 60.1609 8.30469 57.1046L1.49023 40.877C0.19026 37.7814 0.190258 34.293 1.49023 31.1974L8.30469 14.9698C9.5883 11.9135 12.0338 9.49206 15.1025 8.23837L31.7725 1.4288Z" fill="black" stroke="#FFF5F5"/>
<path d="M19.1 32.0095C19.1667 30.6762 19.6333 29.6495 20.5 28.9295C21.38 28.1962 22.5333 27.8295 23.96 27.8295C24.9333 27.8295 25.7667 28.0029 26.46 28.3495C27.1533 28.6829 27.6733 29.1429 28.02 29.7295C28.38 30.3029 28.56 30.9562 28.56 31.6895C28.56 32.5295 28.34 33.2429 27.9 33.8295C27.4733 34.4029 26.96 34.7895 26.36 34.9895V35.0695C27.1333 35.3095 27.7333 35.7362 28.16 36.3495C28.6 36.9629 28.82 37.7495 28.82 38.7095C28.82 39.5095 28.6333 40.2229 28.26 40.8495C27.9 41.4762 27.36 41.9695 26.64 42.3295C25.9333 42.6762 25.08 42.8495 24.08 42.8495C22.5733 42.8495 21.3467 42.4695 20.4 41.7095C19.4533 40.9495 18.9533 39.8295 18.9 38.3495H21.62C21.6467 39.0029 21.8667 39.5295 22.28 39.9295C22.7067 40.3162 23.2867 40.5095 24.02 40.5095C24.7 40.5095 25.22 40.3229 25.58 39.9495C25.9533 39.5629 26.14 39.0695 26.14 38.4695C26.14 37.6695 25.8867 37.0962 25.38 36.7495C24.8733 36.4029 24.0867 36.2295 23.02 36.2295H22.44V33.9295H23.02C24.9133 33.9295 25.86 33.2962 25.86 32.0295C25.86 31.4562 25.6867 31.0095 25.34 30.6895C25.0067 30.3695 24.52 30.2095 23.88 30.2095C23.2533 30.2095 22.7667 30.3829 22.42 30.7295C22.0867 31.0629 21.8933 31.4895 21.84 32.0095H19.1ZM38.5927 31.8095C38.4593 31.2495 38.226 30.8295 37.8927 30.5495C37.5727 30.2695 37.106 30.1295 36.4927 30.1295C35.5727 30.1295 34.8927 30.5029 34.4527 31.2495C34.026 31.9829 33.806 33.1829 33.7927 34.8495C34.1127 34.3162 34.5793 33.9029 35.1927 33.6095C35.806 33.3029 36.4727 33.1495 37.1927 33.1495C38.0593 33.1495 38.826 33.3362 39.4927 33.7095C40.1593 34.0829 40.6793 34.6295 41.0527 35.3495C41.426 36.0562 41.6127 36.9095 41.6127 37.9095C41.6127 38.8562 41.4193 39.7029 41.0327 40.4495C40.6593 41.1829 40.106 41.7562 39.3727 42.1695C38.6393 42.5829 37.766 42.7895 36.7527 42.7895C35.366 42.7895 34.2727 42.4829 33.4727 41.8695C32.686 41.2562 32.1327 40.4029 31.8127 39.3095C31.506 38.2029 31.3527 36.8429 31.3527 35.2295C31.3527 32.7895 31.7727 30.9495 32.6127 29.7095C33.4527 28.4562 34.7793 27.8295 36.5927 27.8295C37.9927 27.8295 39.0793 28.2095 39.8527 28.9695C40.626 29.7295 41.0727 30.6762 41.1927 31.8095H38.5927ZM36.5527 35.4495C35.846 35.4495 35.2527 35.6562 34.7727 36.0695C34.2927 36.4829 34.0527 37.0829 34.0527 37.8695C34.0527 38.6562 34.2727 39.2762 34.7127 39.7295C35.166 40.1829 35.7993 40.4095 36.6127 40.4095C37.3327 40.4095 37.8993 40.1895 38.3127 39.7495C38.7393 39.3095 38.9527 38.7162 38.9527 37.9695C38.9527 37.1962 38.746 36.5829 38.3327 36.1295C37.9327 35.6762 37.3393 35.4495 36.5527 35.4495ZM43.8256 35.2695C43.8256 32.9629 44.239 31.1562 45.0656 29.8495C45.9056 28.5429 47.2923 27.8895 49.2256 27.8895C51.159 27.8895 52.539 28.5429 53.3656 29.8495C54.2056 31.1562 54.6256 32.9629 54.6256 35.2695C54.6256 37.5895 54.2056 39.4095 53.3656 40.7295C52.539 42.0495 51.159 42.7095 49.2256 42.7095C47.2923 42.7095 45.9056 42.0495 45.0656 40.7295C44.239 39.4095 43.8256 37.5895 43.8256 35.2695ZM51.8656 35.2695C51.8656 34.2829 51.799 33.4562 51.6656 32.7895C51.5456 32.1095 51.2923 31.5562 50.9056 31.1295C50.5323 30.7029 49.9723 30.4895 49.2256 30.4895C48.479 30.4895 47.9123 30.7029 47.5256 31.1295C47.1523 31.5562 46.899 32.1095 46.7656 32.7895C46.6456 33.4562 46.5856 34.2829 46.5856 35.2695C46.5856 36.2829 46.6456 37.1362 46.7656 37.8295C46.8856 38.5095 47.139 39.0629 47.5256 39.4895C47.9123 39.9029 48.479 40.1095 49.2256 40.1095C49.9723 40.1095 50.539 39.9029 50.9256 39.4895C51.3123 39.0629 51.5656 38.5095 51.6856 37.8295C51.8056 37.1362 51.8656 36.2829 51.8656 35.2695Z" fill="white"/>
</svg>
