<?xml version="1.0" encoding="UTF-8"?>
<svg version="1.1" xmlns="http://www.w3.org/2000/svg" width="1052" height="1052">
<path d="M0 0 C1.31195847 -0.00701431 2.62391693 -0.01402863 3.97563171 -0.02125549 C8.18558237 -0.0406485 12.39547792 -0.04568933 16.60546875 -0.046875 C17.32262054 -0.04731686 18.03977234 -0.04775871 18.77865601 -0.04821396 C40.26178153 -0.05515664 61.47271136 0.23621889 82.79296875 3.203125 C84.06092285 3.36941406 85.32887695 3.53570312 86.63525391 3.70703125 C117.5539627 7.82596618 148.12317925 14.56414235 177.79296875 24.203125 C178.96375977 24.58194824 180.13455078 24.96077148 181.34082031 25.35107422 C207.74220179 33.97835296 232.949716 44.81671084 257.79296875 57.203125 C258.70385254 57.65655273 259.61473633 58.10998047 260.55322266 58.57714844 C294.72958147 75.71854255 326.61608577 97.52857494 355.79296875 122.203125 C356.30811035 122.6347998 356.82325195 123.06647461 357.35400391 123.51123047 C370.58262705 134.60632895 383.06280781 146.395029 395.29296875 158.578125 C396.54811279 159.82625977 396.54811279 159.82625977 397.82861328 161.09960938 C402.69047325 165.97415331 407.31383506 170.97701467 411.79296875 176.203125 C412.81446467 177.35979051 413.83786014 178.51478162 414.86328125 179.66796875 C422.38877277 188.19620853 429.4099402 197.01541943 436.22412109 206.11962891 C437.71670761 208.10184698 439.22916151 210.06675697 440.75 212.02734375 C460.85860465 238.10390221 477.03326424 266.8481826 491.79296875 296.203125 C492.21529785 297.03312012 492.63762695 297.86311523 493.07275391 298.71826172 C525.11806528 361.97600675 543.74118903 437.49379562 543.99609375 508.41015625 C544.00661522 510.37809395 544.00661522 510.37809395 544.01734924 512.38578796 C544.03674225 516.59573862 544.04178308 520.80563417 544.04296875 525.015625 C544.04341061 525.73277679 544.04385246 526.44992859 544.04430771 527.18881226 C544.05125039 548.67193778 543.75987486 569.88286761 540.79296875 591.203125 C540.54353516 593.10505615 540.54353516 593.10505615 540.2890625 595.04541016 C536.17012757 625.96411895 529.4319514 656.5333355 519.79296875 686.203125 C519.22473389 687.95931152 519.22473389 687.95931152 518.64501953 689.75097656 C510.01774079 716.15235804 499.17938291 741.35987225 486.79296875 766.203125 C486.33954102 767.11400879 485.88611328 768.02489258 485.41894531 768.96337891 C468.2775512 803.13973772 446.46751881 835.02624202 421.79296875 864.203125 C421.36129395 864.7182666 420.92961914 865.2334082 420.48486328 865.76416016 C409.3897648 878.9927833 397.60106475 891.47296406 385.41796875 903.703125 C384.58587891 904.5398877 383.75378906 905.37665039 382.89648438 906.23876953 C378.02194044 911.1006295 373.01907908 915.72399131 367.79296875 920.203125 C366.63630324 921.22462092 365.48131213 922.24801639 364.328125 923.2734375 C355.79988522 930.79892902 346.98067432 937.82009645 337.87646484 944.63427734 C335.89424677 946.12686386 333.92933678 947.63931776 331.96875 949.16015625 C305.89219154 969.2687609 277.14791115 985.44342049 247.79296875 1000.203125 C246.96297363 1000.6254541 246.13297852 1001.0477832 245.27783203 1001.48291016 C182.020087 1033.52822153 106.50229813 1052.15134528 35.5859375 1052.40625 C33.6179998 1052.41677147 33.6179998 1052.41677147 31.61030579 1052.42750549 C27.40035513 1052.4468985 23.19045958 1052.45193933 18.98046875 1052.453125 C17.90474106 1052.45378778 17.90474106 1052.45378778 16.80728149 1052.45446396 C-4.67584403 1052.46140664 -25.88677386 1052.17003111 -47.20703125 1049.203125 C-49.1089624 1048.95369141 -49.1089624 1048.95369141 -51.04931641 1048.69921875 C-81.9680252 1044.58028382 -112.53724175 1037.84210765 -142.20703125 1028.203125 C-143.96321777 1027.63489014 -143.96321777 1027.63489014 -145.75488281 1027.05517578 C-172.15626429 1018.42789704 -197.3637785 1007.58953916 -222.20703125 995.203125 C-223.11791504 994.74969727 -224.02879883 994.29626953 -224.96728516 993.82910156 C-259.14364397 976.68770745 -291.03014827 954.87767506 -320.20703125 930.203125 C-320.72217285 929.7714502 -321.23731445 929.33977539 -321.76806641 928.89501953 C-334.99668955 917.79992105 -347.47687031 906.011221 -359.70703125 893.828125 C-360.54379395 892.99603516 -361.38055664 892.16394531 -362.24267578 891.30664062 C-367.10453575 886.43209669 -371.72789756 881.42923533 -376.20703125 876.203125 C-377.22852717 875.04645949 -378.25192264 873.89146838 -379.27734375 872.73828125 C-386.80283527 864.21004147 -393.8240027 855.39083057 -400.63818359 846.28662109 C-402.13077011 844.30440302 -403.64322401 842.33949303 -405.1640625 840.37890625 C-425.27266715 814.30234779 -441.44732674 785.5580674 -456.20703125 756.203125 C-456.62936035 755.37312988 -457.05168945 754.54313477 -457.48681641 753.68798828 C-489.53212778 690.43024325 -508.15525153 614.91245438 -508.41015625 543.99609375 C-508.41717056 542.68413528 -508.42418488 541.37217682 -508.43141174 540.02046204 C-508.45080475 535.81051138 -508.45584558 531.60061583 -508.45703125 527.390625 C-508.45747311 526.67347321 -508.45791496 525.95632141 -508.45837021 525.21743774 C-508.46531289 503.73431222 -508.17393736 482.52338239 -505.20703125 461.203125 C-505.04074219 459.9351709 -504.87445313 458.6672168 -504.703125 457.36083984 C-500.58419007 426.44213105 -493.8460139 395.8729145 -484.20703125 366.203125 C-483.82820801 365.03233398 -483.44938477 363.86154297 -483.05908203 362.65527344 C-474.43180329 336.25389196 -463.59344541 311.04637775 -451.20703125 286.203125 C-450.75360352 285.29224121 -450.30017578 284.38135742 -449.83300781 283.44287109 C-432.6916137 249.26651228 -410.88158131 217.38000798 -386.20703125 188.203125 C-385.77535645 187.6879834 -385.34368164 187.1728418 -384.89892578 186.64208984 C-373.8038273 173.4134667 -362.01512725 160.93328594 -349.83203125 148.703125 C-348.99994141 147.8663623 -348.16785156 147.02959961 -347.31054688 146.16748047 C-342.43600294 141.3056205 -337.43314158 136.68225869 -332.20703125 132.203125 C-331.05036574 131.18162908 -329.89537463 130.15823361 -328.7421875 129.1328125 C-320.21394772 121.60732098 -311.39473682 114.58615355 -302.29052734 107.77197266 C-300.30830927 106.27938614 -298.34339928 104.76693224 -296.3828125 103.24609375 C-270.30625404 83.1374891 -241.56197365 66.96282951 -212.20703125 52.203125 C-211.37703613 51.7807959 -210.54704102 51.3584668 -209.69189453 50.92333984 C-146.4341495 18.87802847 -70.91636063 0.25490472 0 0 Z " fill="#000000" transform="translate(508.20703125,-0.203125)"/>
<path d="M0 0 C0.81194824 0.14743652 1.62389648 0.29487305 2.46044922 0.44677734 C29.39868827 5.51509489 55.9108422 14.9445817 80 28 C81.29125683 28.46635723 81.29125683 28.46635723 82.60859966 28.94213581 C85 31 85 31 85.457955 32.97442758 C85.63531199 35.72538986 85.64145932 38.43683621 85.60127258 41.19340515 C85.60554471 42.25360849 85.60981683 43.31381182 85.61421841 44.40614253 C85.62248705 47.97650698 85.59489795 51.54570968 85.56762695 55.1159668 C85.56621733 57.66810071 85.56700678 60.22023665 85.56983948 62.77236938 C85.5709799 68.27604267 85.55675317 73.77933849 85.52865028 79.28293419 C85.4880449 87.24015747 85.47499615 95.19723738 85.46871033 103.15455303 C85.45776245 116.06413541 85.42447498 128.97355997 85.37719727 141.88305664 C85.33131437 154.42471526 85.29591628 166.96633105 85.2746582 179.50805664 C85.27334459 180.28090032 85.27203097 181.05374401 85.27067754 181.8500072 C85.26415244 185.72706948 85.25783388 189.60413207 85.25161803 193.48119485 C85.19976967 225.6542446 85.11169109 257.82710041 85 290 C82.27579446 291.45176834 79.55002552 292.90057715 76.82397461 294.34887695 C76.05658714 294.75787483 75.28919968 295.16687271 74.49855804 295.58826447 C69.27766699 298.35958257 64.03979783 300.95652634 58.5625 303.1875 C57.78011963 303.51081299 56.99773926 303.83412598 56.19165039 304.16723633 C47.9272394 307.52556002 39.52531391 310.38352569 31 313 C30.30148926 313.2175293 29.60297852 313.43505859 28.88330078 313.65917969 C-25.01193693 330.24040013 -85.28650513 330.69862461 -140 318 C-140.97662598 317.77441406 -141.95325195 317.54882812 -142.95947266 317.31640625 C-162.54257433 312.7032517 -181.19551007 306.41583602 -199 297 C-205.93 293.535 -205.93 293.535 -213 290 C-213 204.53 -213 119.06 -213 31 C-204.36426515 26.06529437 -196.40998136 21.56088282 -187.3125 17.875 C-186.28358643 17.45323486 -185.25467285 17.03146973 -184.19458008 16.59692383 C-174.94370186 12.86579593 -165.59652689 9.70879536 -156 7 C-155.20754883 6.77473633 -154.41509766 6.54947266 -153.59863281 6.31738281 C-143.53375338 3.48726629 -133.45149307 1.10048883 -123.1394043 -0.63867188 C-121.51194787 -0.91353613 -119.88607317 -1.19778432 -118.26098633 -1.48632812 C-80.01877887 -8.14198768 -38.08201074 -7.03134545 0 0 Z " fill="#FEFEFE" transform="translate(893,337)"/>
<path d="M0 0 C1.22456909 0.00140488 1.22456909 0.00140488 2.47387695 0.00283813 C49.77327898 0.11910495 99.21520233 6.02226902 141.75 28.1875 C142.62436203 28.56340775 143.49872406 28.93931549 144.39958191 29.32661438 C146.75 31.1875 146.75 31.1875 147.35127258 34.43351746 C147.36582471 35.79052618 147.35243393 37.14799837 147.31762695 38.50463867 C147.31853096 39.63517025 147.31853096 39.63517025 147.31945324 40.78854084 C147.31572102 43.2282676 147.27765333 45.66608385 147.23828125 48.10546875 C147.2309297 49.61152222 147.22582888 51.11758843 147.22302246 52.62365723 C147.19680927 58.20763299 147.12700286 63.79133527 147.0625 69.375 C146.959375 81.853125 146.85625 94.33125 146.75 107.1875 C114.74 107.1875 82.73 107.1875 49.75 107.1875 C49.42 96.9575 49.09 86.7275 48.75 76.1875 C33.54423726 72.38605932 20.13158373 70.81432724 4.6418457 70.81689453 C1.71700772 70.81254389 -1.20628897 70.7761764 -4.13085938 70.73828125 C-16.1557339 70.66809445 -27.29530419 71.85949838 -38.98338318 74.71273804 C-42.04469501 75.35395556 -45.15369023 75.74517003 -48.25 76.1875 C-47.92 96.3175 -47.59 116.4475 -47.25 137.1875 C-42.3 135.5375 -37.35 133.8875 -32.25 132.1875 C-27.57205258 131.0891993 -22.96421926 130.06623489 -18.25 129.1875 C-16.73986328 128.89552734 -16.73986328 128.89552734 -15.19921875 128.59765625 C35.60688079 119.3785362 101.71700639 127.27028191 146.75 153.1875 C147.0071115 171.58079177 147.20100815 189.97361646 147.31993389 208.3683176 C147.37662478 216.90964942 147.45389074 225.44986395 147.57983398 233.99047852 C147.68957207 241.43572692 147.76046204 248.88016624 147.78497344 256.3262009 C147.7993004 260.26834255 147.83288845 264.20816993 147.91303062 268.14956856 C147.98791931 271.86281738 148.01068982 275.57280898 147.99418449 279.28674126 C147.99863642 281.29326924 148.05773162 283.29944488 148.11862183 285.30505371 C148.07320866 288.92227348 147.92829162 291.76475826 146.75 295.1875 C143.44870231 298.39358529 139.90971255 300.28641398 135.75 302.1875 C134.54379619 302.84989292 133.34007298 303.5168571 132.140625 304.19140625 C104.31867692 317.99856705 74.50167215 325.46418101 43.75 329.1875 C41.8469812 329.44237183 41.8469812 329.44237183 39.90551758 329.70239258 C27.57469102 331.28647633 15.3589146 331.5457393 2.9375 331.5 C1.90775055 331.49817719 0.8780011 331.49635437 -0.18295288 331.49447632 C-52.26524322 331.33975299 -99.66338047 320.51339974 -145.25 295.1875 C-145.25 208.7275 -145.25 122.2675 -145.25 33.1875 C-125.23398822 22.59078788 -125.23398822 22.59078788 -118.75 20.0625 C-117.9343457 19.74176514 -117.11869141 19.42103027 -116.27832031 19.09057617 C-94.24170806 10.69577456 -70.70700506 5.57781709 -47.375 2.4375 C-46.52147949 2.32180664 -45.66795898 2.20611328 -44.78857422 2.08691406 C-29.93916084 0.24716373 -14.94570871 -0.0225318 0 0 Z " fill="#FDFDFD" transform="translate(523.25,331.8125)"/>
<path d="M0 0 C1.19109375 0.23589844 1.19109375 0.23589844 2.40625 0.4765625 C26.18214007 5.21567572 49.51193918 12.7602735 70.73144531 24.61523438 C71.5333429 25.06265991 72.33524048 25.51008545 73.16143799 25.97106934 C74.07152618 26.48039001 74.07152618 26.48039001 75 27 C75.18535991 40.58644026 75.32750782 54.17257978 75.41449738 67.76002693 C75.45624854 74.06931339 75.51287827 80.37773485 75.60351562 86.68652344 C75.69044005 92.77497733 75.73827466 98.86259932 75.75901794 104.95162582 C75.77379996 107.27456639 75.80266683 109.5974614 75.84584045 111.92004776 C75.90392876 115.17442423 75.91191269 118.4253643 75.90820312 121.68017578 C75.93696533 122.64043167 75.96572754 123.60068756 75.99536133 124.59004211 C75.91649295 130.98520586 75.91649295 130.98520586 73.28648376 133.89730453 C71.25275859 135.45454436 69.23866329 136.75899668 67 138 C66.02396191 138.55716296 66.02396191 138.55716296 65.02820587 139.12558174 C63.21676955 140.1247269 61.37854815 141.00880126 59.5 141.875 C58.79294922 142.2045166 58.08589844 142.5340332 57.35742188 142.87353516 C45.7576122 148.09344951 33.29062884 152.49476739 20.84375 155.1640625 C17.2332607 155.58651043 17.2332607 155.58651043 16 157 C17.28132812 157.30292969 18.56265625 157.60585938 19.8828125 157.91796875 C35.30670577 161.62431175 49.84945283 166.11798115 63.80106544 173.8263073 C65.35113794 174.65366652 66.93433658 175.42036804 68.53668785 176.14128304 C75.44383721 179.57818144 75.44383721 179.57818144 76.90684891 183.3183403 C77.23390464 186.21307568 77.23824946 188.95899044 77.13525391 191.87060547 C77.13744431 193.49588921 77.13744431 193.49588921 77.13967896 195.15400696 C77.13272445 198.72712182 77.05501948 202.29498706 76.9765625 205.8671875 C76.95790647 208.34723054 76.94367412 210.82731048 76.9336853 213.30740356 C76.89554136 219.82843153 76.79734408 226.3472245 76.68664551 232.86737061 C76.57884739 239.52313071 76.53865821 246.17954197 76.48828125 252.8359375 C76.38110097 265.89157741 76.21240385 278.94566974 76 292 C73.47735604 293.26982782 70.95379423 294.53777314 68.4296875 295.8046875 C67.72416748 296.16006592 67.01864746 296.51544434 66.29174805 296.8815918 C24.01355269 318.08153892 -23.58639989 325.48853602 -70.5 325.3125 C-72.06522903 325.30926727 -72.06522903 325.30926727 -73.66207886 325.30596924 C-123.72062463 325.14094054 -171.76428216 316.12857337 -216 292 C-216 267.58 -216 243.16 -216 218 C-183.99 218 -151.98 218 -119 218 C-118.67 227.9 -118.34 237.8 -118 248 C-102.66664425 252.60000672 -89.32559814 254.17244393 -73.46899414 254.13037109 C-71.07106176 254.12501911 -68.67331727 254.13033933 -66.27539062 254.13671875 C-55.14367392 254.14335082 -44.36948489 253.94444998 -33.5625 251 C-32.88251953 250.82210938 -32.20253906 250.64421875 -31.50195312 250.4609375 C-29.66635977 249.98005869 -27.83305909 249.49045059 -26 249 C-24.68 248.67 -23.36 248.34 -22 248 C-21.67 233.81 -21.34 219.62 -21 205 C-24.3 204.01 -27.6 203.02 -31 202 C-32.010625 201.649375 -33.02125 201.29875 -34.0625 200.9375 C-45.0178834 197.44110104 -56.18060959 196.86664374 -67.61206055 196.79467773 C-68.60853104 196.78477814 -69.60500153 196.77487854 -70.63166809 196.76467896 C-73.88332854 196.7334151 -77.13500354 196.70844736 -80.38671875 196.68359375 C-82.65786593 196.66299379 -84.92900953 196.64199658 -87.20014954 196.62062073 C-93.14628182 196.56571397 -99.09244688 196.51616765 -105.03863525 196.46777344 C-112.18995457 196.40844128 -119.34121464 196.3423879 -126.49248505 196.27747345 C-137.32828685 196.17985962 -148.16412857 196.09073329 -159 196 C-159 171.25 -159 146.5 -159 121 C-152.23242188 120.93941406 -145.46484375 120.87882812 -138.4921875 120.81640625 C-134.18098391 120.77586704 -129.86978577 120.73507101 -125.55859375 120.69335938 C-118.72967504 120.6273124 -111.9007568 120.56216843 -105.07177734 120.50268555 C-99.56039547 120.45461957 -94.04906885 120.40226747 -88.53775406 120.34705925 C-86.44486001 120.32682517 -84.35195092 120.30808347 -82.25902939 120.29092598 C-61.07654961 120.4263676 -61.07654961 120.4263676 -40.25 117.125 C-39.58613281 116.96386719 -38.92226562 116.80273438 -38.23828125 116.63671875 C-32.7574906 115.27967078 -27.41957135 113.6258714 -22 112 C-22 98.14 -22 84.28 -22 70 C-28.6 68.68 -35.2 67.36 -42 66 C-43.32 65.67 -44.64 65.34 -46 65 C-67.28823388 62.4186423 -89.32592438 63.10117325 -110.1328125 68.31640625 C-113.05931923 69.01414287 -116.03240015 69.50540002 -119 70 C-119 80.23 -119 90.46 -119 101 C-151.01 101 -183.02 101 -216 101 C-216 76.58 -216 52.16 -216 27 C-196.14622345 16.48917712 -196.14622345 16.48917712 -187.75 13.3125 C-186.78819824 12.94294189 -185.82639648 12.57338379 -184.83544922 12.19262695 C-175.05657676 8.51454835 -165.11291753 5.59987961 -155 3 C-154.25556641 2.80567383 -153.51113281 2.61134766 -152.74414062 2.41113281 C-104.35908723 -10.08870289 -48.79570297 -9.99789633 0 0 Z " fill="#FDFDFD" transform="translate(294,338)"/>
<path d="M0 0 C2.22643345 0.01071923 4.4520575 0.00002842 6.6784668 -0.01269531 C19.73897283 -0.02788791 32.94539 0.48194939 45.23120117 5.32324219 C46.32658203 5.72639648 46.32658203 5.72639648 47.4440918 6.13769531 C52.59602865 8.06306966 52.59602865 8.06306966 53.79370117 9.26074219 C53.89062181 11.39967486 53.9155692 13.54187185 53.91395569 15.68299866 C53.91481011 16.36172277 53.91566454 17.04044689 53.91654485 17.7397384 C53.91820158 20.03070145 53.91267517 22.32159245 53.90722656 24.61254883 C53.90694471 26.2481435 53.90710239 27.88373829 53.90766907 29.51933289 C53.9079571 33.97368805 53.90205941 38.42801653 53.89509511 42.88236547 C53.88886257 47.53220692 53.88825785 52.18204893 53.8870697 56.83189392 C53.88395609 65.64335921 53.87574231 74.45481216 53.86572021 83.26627201 C53.85456 93.29512326 53.84904886 103.32397509 53.84402478 113.35283101 C53.83355972 133.9888083 53.8159597 154.62477447 53.79370117 175.26074219 C51.54920258 176.07318378 49.30382272 176.88302683 47.05786133 177.69140625 C46.42554092 177.92058746 45.79322052 178.14976868 45.14173889 178.38589478 C28.21090683 184.4679446 10.55983663 184.58231832 -7.20629883 184.26074219 C-8.34067383 184.24398437 -9.47504883 184.22722656 -10.64379883 184.20996094 C-23.40987643 183.62817355 -36.520901 180.33314471 -48.20629883 175.26074219 C-48.32299835 153.66890844 -48.41122134 132.07712654 -48.46535969 110.48504162 C-48.49116302 100.45989134 -48.52635414 90.43493678 -48.58349609 80.40991211 C-48.63326597 71.67409952 -48.66557434 62.93842865 -48.6767413 54.20247823 C-48.68327098 49.57495894 -48.6986614 44.94784513 -48.73494911 40.32045555 C-48.76880747 35.96772048 -48.77937254 31.6155591 -48.77183723 27.26270485 C-48.77321636 25.66266388 -48.78320963 24.06260436 -48.8023262 22.462677 C-48.82710782 20.28224236 -48.82126165 18.10398997 -48.80757141 15.92350769 C-48.81218038 14.70213199 -48.81678934 13.48075628 -48.82153797 12.22236919 C-48.20629883 9.26074219 -48.20629883 9.26074219 -45.84401226 7.41292286 C-31.19609654 1.01456087 -15.75994303 -0.08981009 0 0 Z " fill="#000000" transform="translate(826.206298828125,405.7392578125)"/>
<path d="M0 0 C1 1 1 1 1.12025452 3.47401428 C1.11803391 4.57321701 1.11581329 5.67241974 1.11352539 6.80493164 C1.11341209 8.66674828 1.11341209 8.66674828 1.11329651 10.56617737 C1.10818911 11.9308374 1.1029731 13.29549702 1.09765625 14.66015625 C1.095792 16.04878183 1.09436813 17.43740807 1.09336853 18.82603455 C1.08954387 22.48721115 1.07971403 26.1483483 1.06866455 29.80950928 C1.05844932 33.54292263 1.05387067 37.27634234 1.04882812 41.00976562 C1.03809171 48.33986177 1.02101591 55.66992536 1 63 C-0.41886451 63.47639335 -1.83803232 63.95188343 -3.25732422 64.42700195 C-4.04759003 64.69188919 -4.83785583 64.95677643 -5.65206909 65.22969055 C-19.50090181 69.77321722 -33.2252161 70.40278505 -47.6875 70.4375 C-48.92587616 70.44648819 -48.92587616 70.44648819 -50.18927002 70.45565796 C-66.68774674 70.5352234 -82.29668553 68.23443816 -98 63 C-98 42.54 -98 22.08 -98 1 C-92.02624996 -0.99125001 -86.67661061 -2.62025353 -80.5625 -3.625 C-79.87607422 -3.74617187 -79.18964844 -3.86734375 -78.48242188 -3.9921875 C-52.71742859 -8.39400622 -25.07064402 -7.45343471 0 0 Z " fill="#010101" transform="translate(573,527)"/>
<path d="M0 0 C5.61 0 11.22 0 17 0 C17 1.32 17 2.64 17 4 C16.01 4 15.02 4 14 4 C14.2165625 4.74765625 14.433125 5.4953125 14.65625 6.265625 C14.9346875 7.25046875 15.213125 8.2353125 15.5 9.25 C15.7784375 10.22453125 16.056875 11.1990625 16.34375 12.203125 C17 15 17 15 17 19 C17.66 19 18.32 19 19 19 C19.103125 18.195625 19.20625 17.39125 19.3125 16.5625 C20.15100373 12.21752614 21.52821659 8.16542473 23 4 C21.68 4 20.36 4 19 4 C19 2.68 19 1.36 19 0 C33.52 0 48.04 0 63 0 C63 3.3 63 6.6 63 10 C61.35 10 59.7 10 58 10 C57.87625 9.360625 57.7525 8.72125 57.625 8.0625 C57.41875 7.381875 57.2125 6.70125 57 6 C54.70370006 4.85185003 52.92301914 4.69230191 50.375 4.4375 C49.55773437 4.35371094 48.74046875 4.26992188 47.8984375 4.18359375 C47.27195313 4.12300781 46.64546875 4.06242188 46 4 C46 6.64 46 9.28 46 12 C49.11332248 11.33131686 49.11332248 11.33131686 50.1875 8.9375 C50.455625 8.298125 50.72375 7.65875 51 7 C52.32 7 53.64 7 55 7 C55 11.62 55 16.24 55 21 C53.68 21 52.36 21 51 21 C50.67 19.35 50.34 17.7 50 16 C48.68 16 47.36 16 46 16 C46 18.64 46 21.28 46 24 C49.63 24 53.26 24 57 24 C57.66 21.69 58.32 19.38 59 17 C60.65 17 62.3 17 64 17 C64 20.96 64 24.92 64 29 C53.44 29 42.88 29 32 29 C32 27.35 32 25.7 32 24 C33.32 23.67 34.64 23.34 36 23 C36 17.06 36 11.12 36 5 C34.02 5 32.04 5 30 5 C27.01919594 12.91181502 24.42095373 20.90010695 22 29 C18.37 29 14.74 29 11 29 C10.45730469 27.27910156 9.91460937 25.55820312 9.35546875 23.78515625 C8.63344425 21.5440672 7.91075355 19.30319271 7.1875 17.0625 C6.65286133 15.35803711 6.65286133 15.35803711 6.10742188 13.61914062 C5.58051758 11.99975586 5.58051758 11.99975586 5.04296875 10.34765625 C4.72352295 9.34742432 4.40407715 8.34719238 4.07495117 7.31665039 C3.72021729 6.55215576 3.3654834 5.78766113 3 5 C2.01 4.67 1.02 4.34 0 4 C0 2.68 0 1.36 0 0 Z " fill="#F3F3F3" transform="translate(115,691)"/>
<path d="M0 0 C5.61 0 11.22 0 17 0 C17 1.65 17 3.3 17 5 C15.68 5 14.36 5 13 5 C13 11.6 13 18.2 13 25 C15.31 25 17.62 25 20 25 C20.103125 24.36578125 20.20625 23.7315625 20.3125 23.078125 C21.25305184 18.8670179 22.62483031 14.83658917 24 10.75 C24.27328125 9.92242188 24.5465625 9.09484375 24.828125 8.2421875 C25.09109375 7.45585938 25.3540625 6.66953125 25.625 5.859375 C25.98464844 4.78381348 25.98464844 4.78381348 26.3515625 3.68652344 C27 2 27 2 28 1 C29.85287502 0.92773498 31.70833878 0.9161878 33.5625 0.9375 C34.57441406 0.94652344 35.58632813 0.95554687 36.62890625 0.96484375 C37.41136719 0.97644531 38.19382812 0.98804688 39 1 C39.98482876 3.87317015 40.9629993 6.74832745 41.9375 9.625 C42.35418945 10.83736328 42.35418945 10.83736328 42.77929688 12.07421875 C44.22953216 16.37250646 45.42203982 20.47874188 46 25 C47.32 25 48.64 25 50 25 C50 26.65 50 28.3 50 30 C44.06 30 38.12 30 32 30 C32 28.35 32 26.7 32 25 C33.32 25 34.64 25 36 25 C35.67 23.35 35.34 21.7 35 20 C32.36 20 29.72 20 27 20 C26.67 21.65 26.34 23.3 26 25 C27.32 25 28.64 25 30 25 C30 26.65 30 28.3 30 30 C19.77 30 9.54 30 -1 30 C-1 28.35 -1 26.7 -1 25 C0.32 25 1.64 25 3 25 C3 18.4 3 11.8 3 5 C1.68 5 0.36 5 -1 5 C-0.67 3.35 -0.34 1.7 0 0 Z " fill="#F2F2F2" transform="translate(445,690)"/>
<path d="M0 0 C3.96 0 7.92 0 12 0 C12.98029517 3.24966349 13.9592797 6.49971194 14.9375 9.75 C15.35418945 11.13058594 15.35418945 11.13058594 15.77929688 12.5390625 C16.04677734 13.42851563 16.31425781 14.31796875 16.58984375 15.234375 C16.83597412 16.05131836 17.08210449 16.86826172 17.33569336 17.70996094 C17.94113585 19.79707986 18.4889715 21.8880316 19 24 C20.98 24 22.96 24 25 24 C25 17.4 25 10.8 25 4 C23.68 4 22.36 4 21 4 C21 2.68 21 1.36 21 0 C26.94 0 32.88 0 39 0 C39 1.32 39 2.64 39 4 C37.68 4 36.36 4 35 4 C35 10.6 35 17.2 35 24 C36.32 24 37.64 24 39 24 C39 25.65 39 27.3 39 29 C27.78 29 16.56 29 5 29 C5 27.35 5 25.7 5 24 C5.99 23.67 6.98 23.34 8 23 C7.67 22.01 7.34 21.02 7 20 C4.36 19.67 1.72 19.34 -1 19 C-1.33 20.65 -1.66 22.3 -2 24 C-0.68 24 0.64 24 2 24 C2 25.65 2 27.3 2 29 C-2.62 29 -7.24 29 -12 29 C-12 27.35 -12 25.7 -12 24 C-10.68 24 -9.36 24 -8 24 C-7.84144531 23.44054687 -7.68289063 22.88109375 -7.51953125 22.3046875 C-5.32157454 14.7514882 -2.69334719 7.3880749 0 0 Z " fill="#EEEEEE" transform="translate(753,691)"/>
<path d="M0 0 C5.61 0 11.22 0 17 0 C18.32 4.62 19.64 9.24 21 14 C21.9590625 11.64875 21.9590625 11.64875 22.9375 9.25 C23.29714844 8.36828125 23.65679687 7.4865625 24.02734375 6.578125 C25.13118257 3.80258919 25.13118257 3.80258919 26 0 C31.61 0 37.22 0 43 0 C43 0.99 43 1.98 43 3 C42.34 3.33 41.68 3.66 41 4 C40.67 10.6 40.34 17.2 40 24 C40.99 24 41.98 24 43 24 C43 25.65 43 27.3 43 29 C38.05 29 33.1 29 28 29 C28 27.35 28 25.7 28 24 C28.99 24 29.98 24 31 24 C30.67 19.05 30.34 14.1 30 9 C28.02 15.6 26.04 22.2 24 29 C21.36 29 18.72 29 16 29 C14.35 22.73 12.7 16.46 11 10 C10.67 14.62 10.34 19.24 10 24 C10.99 24 11.98 24 13 24 C13 25.65 13 27.3 13 29 C8.71 29 4.42 29 0 29 C0 27.35 0 25.7 0 24 C1.32 24 2.64 24 4 24 C4 17.4 4 10.8 4 4 C2.68 4 1.36 4 0 4 C0 2.68 0 1.36 0 0 Z " fill="#F5F5F5" transform="translate(330,691)"/>
<path d="M0 0 C5.61 0 11.22 0 17 0 C18.32 4.62 19.64 9.24 21 14 C21.45375 12.618125 21.9075 11.23625 22.375 9.8125 C23.47235693 6.47054933 24.68883471 3.27791321 26 0 C31.61 0 37.22 0 43 0 C43 1.32 43 2.64 43 4 C42.01 4 41.02 4 40 4 C40 10.93 40 17.86 40 25 C40.99 25 41.98 25 43 25 C43 26.32 43 27.64 43 29 C38.05 29 33.1 29 28 29 C28 27.68 28 26.36 28 25 C28.99 25 29.98 25 31 25 C30.67 19.72 30.34 14.44 30 9 C28.02 15.6 26.04 22.2 24 29 C21.69 29 19.38 29 17 29 C14.71635001 25.57452501 13.86599293 22.24343863 12.875 18.3125 C12.69324219 17.61060547 12.51148438 16.90871094 12.32421875 16.18554688 C11.87772921 14.45833732 11.4381834 12.72933544 11 11 C10.67 15.29 10.34 19.58 10 24 C10.99 24 11.98 24 13 24 C13 25.65 13 27.3 13 29 C8.71 29 4.42 29 0 29 C0 27.35 0 25.7 0 24 C1.32 24 2.64 24 4 24 C3.67 17.73 3.34 11.46 3 5 C2.01 4.67 1.02 4.34 0 4 C0 2.68 0 1.36 0 0 Z " fill="#F0F0F0" transform="translate(829,691)"/>
<path d="M0 0 C3.87474457 -0.11668214 7.74903396 -0.18741231 11.625 -0.25 C13.26662109 -0.30027344 13.26662109 -0.30027344 14.94140625 -0.3515625 C21.27694499 -0.42835691 25.24507925 -0.37452709 30 4 C33.12607693 8.58491283 33.65132531 12.6185581 33 18 C32 21.5 32 21.5 31 24 C30.34 24 29.68 24 29 24 C29 24.66 29 25.32 29 26 C22.79662991 29.31484432 17.50753869 29.36372414 10.5625 29.1875 C9.54478516 29.17396484 8.52707031 29.16042969 7.47851562 29.14648438 C4.98511786 29.1113661 2.49284488 29.06218559 0 29 C0 27.35 0 25.7 0 24 C1.32 24 2.64 24 4 24 C4 17.4 4 10.8 4 4 C2.68 4 1.36 4 0 4 C0 2.68 0 1.36 0 0 Z " fill="#F6F6F6" transform="translate(409,691)"/>
<path d="M0 0 C4.2498709 -0.08708752 8.49951239 -0.14042181 12.75 -0.1875 C13.9565625 -0.21263672 15.163125 -0.23777344 16.40625 -0.26367188 C17.56640625 -0.27333984 18.7265625 -0.28300781 19.921875 -0.29296875 C20.99018555 -0.3086792 22.05849609 -0.32438965 23.15917969 -0.34057617 C26.38474349 0.04612557 27.74783163 0.68074719 30 3 C30.49125459 6.85985753 30.56021138 9.08965651 28.5 12.4375 C28.005 12.953125 27.51 13.46875 27 14 C27.99 15.485 27.99 15.485 29 17 C29.07905064 19.33199388 29.08798769 21.66832622 29 24 C29.66 24 30.32 24 31 24 C31 23.01 31 22.02 31 21 C31.99 21 32.98 21 34 21 C33.125 27.875 33.125 27.875 32 29 C30.35769636 29.1245486 28.70947724 29.17568524 27.0625 29.1875 C26.16660156 29.20167969 25.27070312 29.21585938 24.34765625 29.23046875 C22 29 22 29 20 27 C19.5859375 24.3984375 19.5859375 24.3984375 19.375 21.375 C19.30023437 20.37210938 19.22546875 19.36921875 19.1484375 18.3359375 C19.09945312 17.56507813 19.05046875 16.79421875 19 16 C17.02 16 15.04 16 13 16 C13 18.64 13 21.28 13 24 C14.32 24 15.64 24 17 24 C17 25.65 17 27.3 17 29 C11.39 29 5.78 29 0 29 C0 27.68 0 26.36 0 25 C0.99 25 1.98 25 3 25 C3 18.07 3 11.14 3 4 C2.01 4 1.02 4 0 4 C0 2.68 0 1.36 0 0 Z " fill="#F5F5F5" transform="translate(680,691)"/>
<path d="M0 0 C4.29 0 8.58 0 13 0 C13 1.65 13 3.3 13 5 C12.01 5 11.02 5 10 5 C10 13.25 10 21.5 10 30 C6.37 30 2.74 30 -1 30 C-4.3 24.06 -7.6 18.12 -11 12 C-11.33 16.29 -11.66 20.58 -12 25 C-10.68 25 -9.36 25 -8 25 C-8 26.65 -8 28.3 -8 30 C-12.29 30 -16.58 30 -21 30 C-21 28.35 -21 26.7 -21 25 C-19.68 25 -18.36 25 -17 25 C-17 18.4 -17 11.8 -17 5 C-18.32 5 -19.64 5 -21 5 C-21 3.68 -21 2.36 -21 1 C-16.05 1 -11.1 1 -6 1 C-3.03 6.28 -0.06 11.56 3 17 C3.33 13.04 3.66 9.08 4 5 C2.68 5 1.36 5 0 5 C0 3.35 0 1.7 0 0 Z " fill="#EEEEEE" transform="translate(599,690)"/>
<path d="M0 0 C4.29 0 8.58 0 13 0 C13 1.65 13 3.3 13 5 C12.01 5 11.02 5 10 5 C10 13.25 10 21.5 10 30 C6.7 30 3.4 30 0 30 C-1.89453125 27.92578125 -1.89453125 27.92578125 -3 25 C-3.90298828 23.35064453 -3.90298828 23.35064453 -4.82421875 21.66796875 C-5.43910156 20.51941406 -6.05398438 19.37085938 -6.6875 18.1875 C-7.62142578 16.44533203 -7.62142578 16.44533203 -8.57421875 14.66796875 C-9.04472656 13.78753906 -9.51523437 12.90710938 -10 12 C-10.33 16.62 -10.66 21.24 -11 26 C-10.01 26 -9.02 26 -8 26 C-8 27.32 -8 28.64 -8 30 C-12.29 30 -16.58 30 -21 30 C-20.67 28.35 -20.34 26.7 -20 25 C-19.01 25 -18.02 25 -17 25 C-17 18.4 -17 11.8 -17 5 C-17.99 5 -18.98 5 -20 5 C-20 3.68 -20 2.36 -20 1 C-15.20527443 0.40886945 -10.77087123 0.13208481 -6 1 C-2.92183498 3.86880453 -1.5856311 7.15316963 0 11 C0.77032351 12.38706986 1.559102 13.76423861 2.375 15.125 C2.91125 16.07375 3.4475 17.0225 4 18 C4.33 13.71 4.66 9.42 5 5 C3.35 5 1.7 5 0 5 C0 3.35 0 1.7 0 0 Z " fill="#F3F3F3" transform="translate(814,690)"/>
<path d="M0 0 C4.29 0 8.58 0 13 0 C13 1.65 13 3.3 13 5 C11.68 5 10.36 5 9 5 C9 13.25 9 21.5 9 30 C5.7 30 2.4 30 -1 30 C-1.38671875 29.28714844 -1.7734375 28.57429687 -2.171875 27.83984375 C-5.06058173 22.52719747 -7.97469686 17.23610159 -11 12 C-11.33 16.29 -11.66 20.58 -12 25 C-10.68 25 -9.36 25 -8 25 C-8 26.65 -8 28.3 -8 30 C-12.29 30 -16.58 30 -21 30 C-21 28.35 -21 26.7 -21 25 C-19.68 25 -18.36 25 -17 25 C-17.33 18.73 -17.66 12.46 -18 6 C-18.99 5.67 -19.98 5.34 -21 5 C-21 3.68 -21 2.36 -21 1 C-16.05 1 -11.1 1 -6 1 C-3.03 6.61 -0.06 12.22 3 18 C3.33 13.71 3.66 9.42 4 5 C2.68 5 1.36 5 0 5 C0 3.35 0 1.7 0 0 Z " fill="#F4F4F4" transform="translate(929,690)"/>
<path d="M0 0 C4.95 0 9.9 0 15 0 C17.97 5.61 20.94 11.22 24 17 C24 13.04 24 9.08 24 5 C23.01 4.67 22.02 4.34 21 4 C21 2.68 21 1.36 21 0 C24.96 0 28.92 0 33 0 C33 1.32 33 2.64 33 4 C32.01 4 31.02 4 30 4 C30 12.25 30 20.5 30 29 C26.7 29 23.4 29 20 29 C16.7 23.06 13.4 17.12 10 11 C9.67 15.29 9.34 19.58 9 24 C10.32 24 11.64 24 13 24 C13 25.65 13 27.3 13 29 C8.38 29 3.76 29 -1 29 C-1 27.35 -1 25.7 -1 24 C0.65 24 2.3 24 4 24 C4 17.4 4 10.8 4 4 C2.68 4 1.36 4 0 4 C0 2.68 0 1.36 0 0 Z " fill="#F3F3F3" transform="translate(182,691)"/>
<path d="M0 0 C10.23 0 20.46 0 31 0 C31 3.3 31 6.6 31 10 C29.35 10 27.7 10 26 10 C25.608125 9.195625 25.21625 8.39125 24.8125 7.5625 C23.27209042 4.7815042 23.27209042 4.7815042 20.59375 4.4453125 C18.05745102 4.21020613 15.54630408 4.05255037 13 4 C13 6.64 13 9.28 13 12 C14.32 11.67 15.64 11.34 17 11 C17.33 9.68 17.66 8.36 18 7 C19.32 7 20.64 7 22 7 C22 11.62 22 16.24 22 21 C20.68 21 19.36 21 18 21 C17.67 19.68 17.34 18.36 17 17 C15.68 16.67 14.36 16.34 13 16 C13 18.64 13 21.28 13 24 C16.63 23.67 20.26 23.34 24 23 C24.66 21.02 25.32 19.04 26 17 C27.65 17 29.3 17 31 17 C31 20.96 31 24.92 31 29 C20.77 29 10.54 29 0 29 C0 27.35 0 25.7 0 24 C1.32 24 2.64 24 4 24 C3.67 17.73 3.34 11.46 3 5 C2.01 4.67 1.02 4.34 0 4 C0 2.68 0 1.36 0 0 Z " fill="#F4F4F4" transform="translate(375,691)"/>
<path d="M0 0 C9.9 0 19.8 0 30 0 C30 3.3 30 6.6 30 10 C28.35 10 26.7 10 25 10 C24.5875 9.195625 24.175 8.39125 23.75 7.5625 C22.28949239 4.81725061 22.28949239 4.81725061 19.81640625 4.4453125 C17.53871201 4.21079172 15.28876411 4.05278072 13 4 C13 6.64 13 9.28 13 12 C13.99 11.67 14.98 11.34 16 11 C16.73323796 8.98491642 16.73323796 8.98491642 17 7 C18.32 7 19.64 7 21 7 C21 11.62 21 16.24 21 21 C19.68 21 18.36 21 17 21 C17 19.35 17 17.7 17 16 C15.68 16 14.36 16 13 16 C13 18.64 13 21.28 13 24 C16.63 24 20.26 24 24 24 C24.33 21.69 24.66 19.38 25 17 C26.65 17 28.3 17 30 17 C30 20.96 30 24.92 30 29 C20.1 29 10.2 29 0 29 C0 27.35 0 25.7 0 24 C0.99 24 1.98 24 3 24 C3 17.4 3 10.8 3 4 C2.01 4 1.02 4 0 4 C0 2.68 0 1.36 0 0 Z " fill="#F8F8F8" transform="translate(83,691)"/>
<path d="M0 0 C9.9 0 19.8 0 30 0 C30 3.3 30 6.6 30 10 C28.35 10 26.7 10 25 10 C24.67 8.35 24.34 6.7 24 5 C18.555 4.505 18.555 4.505 13 4 C13 6.31 13 8.62 13 11 C14.32 11 15.64 11 17 11 C17.33 9.68 17.66 8.36 18 7 C19.32 7 20.64 7 22 7 C22 11.62 22 16.24 22 21 C20.68 21 19.36 21 18 21 C17.505 18.525 17.505 18.525 17 16 C15.68 16 14.36 16 13 16 C13 18.64 13 21.28 13 24 C16.63 23.67 20.26 23.34 24 23 C24.66 21.02 25.32 19.04 26 17 C27.65 17 29.3 17 31 17 C31 20.96 31 24.92 31 29 C20.77 29 10.54 29 0 29 C0 27.68 0 26.36 0 25 C0.99 24.67 1.98 24.34 3 24 C3 17.73 3 11.46 3 5 C2.01 4.67 1.02 4.34 0 4 C0 2.68 0 1.36 0 0 Z " fill="#F2F2F2" transform="translate(874,691)"/>
<path d="M0 0 C9.9 0 19.8 0 30 0 C30 3.3 30 6.6 30 10 C28.35 10 26.7 10 25 10 C24.87625 9.360625 24.7525 8.72125 24.625 8.0625 C24.41875 7.381875 24.2125 6.70125 24 6 C21.70370006 4.85185003 19.92301914 4.69230191 17.375 4.4375 C16.55773437 4.35371094 15.74046875 4.26992188 14.8984375 4.18359375 C14.27195312 4.12300781 13.64546875 4.06242188 13 4 C13 6.64 13 9.28 13 12 C14.32 11.67 15.64 11.34 17 11 C17.33 9.68 17.66 8.36 18 7 C19.32 7 20.64 7 22 7 C22 11.62 22 16.24 22 21 C20.68 21 19.36 21 18 21 C17.505 18.525 17.505 18.525 17 16 C15.68 16 14.36 16 13 16 C13 18.64 13 21.28 13 24 C16.63 23.67 20.26 23.34 24 23 C24.66 21.02 25.32 19.04 26 17 C27.65 17 29.3 17 31 17 C31 20.96 31 24.92 31 29 C20.77 29 10.54 29 0 29 C0 27.68 0 26.36 0 25 C0.99 24.67 1.98 24.34 3 24 C3 17.73 3 11.46 3 5 C2.01 4.67 1.02 4.34 0 4 C0 2.68 0 1.36 0 0 Z " fill="#F7F7F7" transform="translate(544,691)"/>
<path d="M0 0 C9.9 0 19.8 0 30 0 C30 3.3 30 6.6 30 10 C27.525 9.505 27.525 9.505 25 9 C24.67 7.68 24.34 6.36 24 5 C18.555 4.505 18.555 4.505 13 4 C13 6.64 13 9.28 13 12 C14.99983534 11.20882096 14.99983534 11.20882096 17 10 C17.33 9.01 17.66 8.02 18 7 C18.99 7 19.98 7 21 7 C21 11.62 21 16.24 21 21 C20.01 21 19.02 21 18 21 C17.505 18.525 17.505 18.525 17 16 C15.68 16 14.36 16 13 16 C13 18.64 13 21.28 13 24 C16.63 24 20.26 24 24 24 C24.66 21.36 25.32 18.72 26 16 C27.65 16 29.3 16 31 16 C31 20.29 31 24.58 31 29 C20.77 29 10.54 29 0 29 C0 27.35 0 25.7 0 24 C1.32 24 2.64 24 4 24 C3.67 17.73 3.34 11.46 3 5 C2.01 4.67 1.02 4.34 0 4 C0 2.68 0 1.36 0 0 Z " fill="#F2F2F2" transform="translate(646,691)"/>
<path d="M0 0 C0.95648438 -0.00257813 1.91296875 -0.00515625 2.8984375 -0.0078125 C5.625 0.125 5.625 0.125 7.6640625 0.6953125 C10.12706071 1.37251929 10.12706071 1.37251929 14.625 0.125 C14.625 3.755 14.625 7.385 14.625 11.125 C12.975 11.125 11.325 11.125 9.625 11.125 C9.33625 10.485625 9.0475 9.84625 8.75 9.1875 C7.79676549 6.97293921 7.79676549 6.97293921 5.625 6.125 C3.2920134 6.08477609 0.95793334 6.08179753 -1.375 6.125 C-1.375 7.115 -1.375 8.105 -1.375 9.125 C-0.03695313 9.48851562 -0.03695313 9.48851562 1.328125 9.859375 C2.49859375 10.19453125 3.6690625 10.5296875 4.875 10.875 C6.03515625 11.19984375 7.1953125 11.5246875 8.390625 11.859375 C11.77143331 13.18229999 13.43024845 14.26066324 15.625 17.125 C16.31559386 21.95915704 16.37752273 23.94604773 13.75 28.0625 C7.28839969 32.3271562 -0.03622201 31.26377589 -7.375 30.125 C-8.695 30.125 -10.015 30.125 -11.375 30.125 C-11.375 26.495 -11.375 22.865 -11.375 19.125 C-6.375 20.125 -6.375 20.125 -3.9375 22.6875 C-1.56004159 25.4518312 -1.56004159 25.4518312 1.9375 25.4375 C2.824375 25.334375 3.71125 25.23125 4.625 25.125 C4.955 24.135 5.285 23.145 5.625 22.125 C4.66078125 21.82207031 3.6965625 21.51914062 2.703125 21.20703125 C1.42679751 20.78471701 0.15077131 20.36149146 -1.125 19.9375 C-2.37796875 19.53144531 -3.6309375 19.12539063 -4.921875 18.70703125 C-8.66446626 16.99238254 -10.20120312 15.57623801 -12.375 12.125 C-12.9375 9.125 -12.9375 9.125 -12.375 6.125 C-8.35840697 1.36850825 -6.09538968 -0.01634153 0 0 Z " fill="#F5F5F5" transform="translate(262.375,689.875)"/>
<path d="M0 0 C10.23 0 20.46 0 31 0 C31 3.96 31 7.92 31 12 C29.68 12 28.36 12 27 12 C26.7525 11.21625 26.505 10.4325 26.25 9.625 C25.11295988 6.54375423 25.11295988 6.54375423 21 5 C21 11.6 21 18.2 21 25 C22.65 25 24.3 25 26 25 C26 26.65 26 28.3 26 30 C19.4 30 12.8 30 6 30 C6 28.35 6 26.7 6 25 C7.65 25 9.3 25 11 25 C11 18.4 11 11.8 11 5 C9.35 5.66 7.7 6.32 6 7 C5.10613836 9.54775306 5.10613836 9.54775306 5 12 C3.35 12 1.7 12 0 12 C0 8.04 0 4.08 0 0 Z " fill="#EAEAEA" transform="translate(943,690)"/>
<path d="M0 0 C10.23 0 20.46 0 31 0 C31 3.96 31 7.92 31 12 C29.68 12 28.36 12 27 12 C26.7525 11.21625 26.505 10.4325 26.25 9.625 C25.11295988 6.54375423 25.11295988 6.54375423 21 5 C21 11.6 21 18.2 21 25 C22.65 25 24.3 25 26 25 C26 26.65 26 28.3 26 30 C19.4 30 12.8 30 6 30 C6 28.35 6 26.7 6 25 C7.65 25 9.3 25 11 25 C11 18.4 11 11.8 11 5 C9.35 5.66 7.7 6.32 6 7 C5.10613836 9.54775306 5.10613836 9.54775306 5 12 C3.35 12 1.7 12 0 12 C0 8.04 0 4.08 0 0 Z " fill="#F7F7F7" transform="translate(613,690)"/>
<path d="M0 0 C10.23 0 20.46 0 31 0 C31 3.63 31 7.26 31 11 C29.68 11 28.36 11 27 11 C26.7525 10.21625 26.505 9.4325 26.25 8.625 C25.11295988 5.54375423 25.11295988 5.54375423 21 4 C21 10.6 21 17.2 21 24 C22.32 24 23.64 24 25 24 C25 25.65 25 27.3 25 29 C18.73 29 12.46 29 6 29 C6 27.35 6 25.7 6 24 C7.65 24 9.3 24 11 24 C11 17.4 11 10.8 11 4 C9.35 4.66 7.7 5.32 6 6 C5.10613836 8.54775306 5.10613836 8.54775306 5 11 C3.35 11 1.7 11 0 11 C0 7.37 0 3.74 0 0 Z " fill="#F3F3F3" transform="translate(217,691)"/>
<path d="M0 0 C9.9 0 19.8 0 30 0 C30 3.63 30 7.26 30 11 C28.68 11 27.36 11 26 11 C25.7525 10.21625 25.505 9.4325 25.25 8.625 C24.11295988 5.54375423 24.11295988 5.54375423 20 4 C20 10.6 20 17.2 20 24 C21.65 24 23.3 24 25 24 C25 25.65 25 27.3 25 29 C18.4 29 11.8 29 5 29 C5 27.35 5 25.7 5 24 C6.65 24 8.3 24 10 24 C10 17.4 10 10.8 10 4 C5.00488043 6.28908402 5.00488043 6.28908402 4.1875 9.1875 C4.125625 9.785625 4.06375 10.38375 4 11 C2.68 11 1.36 11 0 11 C0 7.37 0 3.74 0 0 Z " fill="#F5F5F5" transform="translate(714,691)"/>
<path d="M0 0 C18.48 0 36.96 0 56 0 C56 0.33 56 0.66 56 1 C49.07 1 42.14 1 35 1 C35 2.32 35 3.64 35 5 C35.99 5 36.98 5 38 5 C38 11.93 38 18.86 38 26 C37.01 26 36.02 26 35 26 C34.67 27.32 34.34 28.64 34 30 C31.75171948 25.50343896 31.83317728 21.92127034 32 17 C30.35 17 28.7 17 27 17 C26.855625 17.94875 26.71125 18.8975 26.5625 19.875 C26 23 26 23 25 25 C21.37 25 17.74 25 14 25 C14 22.36 14 19.72 14 17 C15.32 17 16.64 17 18 17 C18.33 18.65 18.66 20.3 19 22 C19.99 22 20.98 22 22 22 C22 17.38 22 12.76 22 8 C21.01 8 20.02 8 19 8 C18.67 9.32 18.34 10.64 18 12 C16.68 12.33 15.36 12.66 14 13 C14 10.36 14 7.72 14 5 C15.43655854 4.91868537 16.8744483 4.86066441 18.3125 4.8125 C19.51326172 4.76029297 19.51326172 4.76029297 20.73828125 4.70703125 C23.51627459 5.06687495 24.29427215 5.83241353 26 8 C26.33 8.66 26.66 9.32 27 10 C28.32 10.33 29.64 10.66 31 11 C31 7.7 31 4.4 31 1 C21.1 1 11.2 1 1 1 C0.67 2.32 0.34 3.64 0 5 C0 3.35 0 1.7 0 0 Z " fill="#202020" transform="translate(645,690)"/>
<path d="M0 0 C4.95 0 9.9 0 15 0 C15 0.33 15 0.66 15 1 C10.38 1 5.76 1 1 1 C1 2.32 1 3.64 1 5 C2.32 5 3.64 5 5 5 C5 11.6 5 18.2 5 25 C3.35 25 1.7 25 0 25 C0 26.65 0 28.3 0 30 C-0.66 29.67 -1.32 29.34 -2 29 C-2 25.37 -2 21.74 -2 18 C-3.65 18.33 -5.3 18.66 -7 19 C-7.66 20.98 -8.32 22.96 -9 25 C-12.63 25 -16.26 25 -20 25 C-20 22.36 -20 19.72 -20 17 C-18.68 17 -17.36 17 -16 17 C-15.67 18.65 -15.34 20.3 -15 22 C-13.68 22 -12.36 22 -11 22 C-11 17.38 -11 12.76 -11 8 C-12.32 8 -13.64 8 -15 8 C-15.66 9.65 -16.32 11.3 -17 13 C-17.99 13 -18.98 13 -20 13 C-20 10.36 -20 7.72 -20 5 C-18.5629191 4.94577053 -17.12524538 4.90710277 -15.6875 4.875 C-14.88699219 4.85179687 -14.08648437 4.82859375 -13.26171875 4.8046875 C-11 5 -11 5 -8 7 C-8 8.32 -8 9.64 -8 11 C-6.35 11 -4.7 11 -3 11 C-3 7.7 -3 4.4 -3 1 C-2.34 1.66 -1.68 2.32 -1 3 C-0.67 2.01 -0.34 1.02 0 0 Z " fill="#151515" transform="translate(181,690)"/>
<path d="M0 0 C1.32 0 2.64 0 4 0 C4 1.32 4 2.64 4 4 C5.32 4.33 6.64 4.66 8 5 C8 11.27 8 17.54 8 24 C6.68 24 5.36 24 4 24 C4 25.65 4 27.3 4 29 C2 28 2 28 1 27 C0.92794489 25.31391034 0.91613932 23.62499341 0.9375 21.9375 C0.94652344 21.01839844 0.95554687 20.09929688 0.96484375 19.15234375 C0.97644531 18.44207031 0.98804688 17.73179687 1 17 C-0.65 17 -2.3 17 -4 17 C-4.66 19.31 -5.32 21.62 -6 24 C-9.63 24 -13.26 24 -17 24 C-17 21.36 -17 18.72 -17 16 C-15.68 16 -14.36 16 -13 16 C-12.67 17.65 -12.34 19.3 -12 21 C-10.68 21 -9.36 21 -8 21 C-8 16.38 -8 11.76 -8 7 C-9.32 7 -10.64 7 -12 7 C-12.33 8.32 -12.66 9.64 -13 11 C-14.32 11 -15.64 11 -17 11 C-17 8.69 -17 6.38 -17 4 C-15.56344146 3.91868537 -14.1255517 3.86066441 -12.6875 3.8125 C-11.48673828 3.76029297 -11.48673828 3.76029297 -10.26171875 3.70703125 C-8 4 -8 4 -6.20703125 5.32421875 C-5 7 -5 7 -5 10 C-3.35 10 -1.7 10 0 10 C0 6.7 0 3.4 0 0 Z " fill="#0F0F0F" transform="translate(904,691)"/>
<path d="M0 0 C5.61 0 11.22 0 17 0 C17 1.65 17 3.3 17 5 C15.68 5 14.36 5 13 5 C13 11.93 13 18.86 13 26 C14.32 26 15.64 26 17 26 C17 26.99 17 27.98 17 29 C11.39 29 5.78 29 0 29 C0 28.01 0 27.02 0 26 C0.66 25.67 1.32 25.34 2 25 C2.33 18.4 2.66 11.8 3 5 C1.68 5 0.36 5 -1 5 C-0.67 3.35 -0.34 1.7 0 0 Z " fill="#F4F4F4" transform="translate(445,690)"/>
<path d="M0 0 C5.94 0 11.88 0 18 0 C18 1.32 18 2.64 18 4 C16.68 4 15.36 4 14 4 C14.33 10.6 14.66 17.2 15 24 C15.66 24.33 16.32 24.66 17 25 C17 25.99 17 26.98 17 28 C11.72 28 6.44 28 1 28 C1 27.01 1 26.02 1 25 C1.99 25 2.98 25 4 25 C4 18.07 4 11.14 4 4 C2.68 4 1.36 4 0 4 C0 2.68 0 1.36 0 0 Z " fill="#FBFBFB" transform="translate(774,691)"/>
<path d="M0 0 C4.62 0 9.24 0 14 0 C14 1.32 14 2.64 14 4 C13.01 4 12.02 4 11 4 C11 10.93 11 17.86 11 25 C11.99 25 12.98 25 14 25 C14 26.32 14 27.64 14 29 C9.05 29 4.1 29 -1 29 C-1 27.68 -1 26.36 -1 25 C-0.01 25 0.98 25 2 25 C2 18.73 2 12.46 2 6 C1.34 6 0.68 6 0 6 C0 4.02 0 2.04 0 0 Z " fill="#FAFAFA" transform="translate(858,691)"/>
<path d="M0 0 C0.33 0 0.66 0 1 0 C1 3.63 1 7.26 1 11 C2.32 11 3.64 11 5 11 C5.12375 10.21625 5.2475 9.4325 5.375 8.625 C6 6 6 6 8 4 C8.99 4 9.98 4 11 4 C11 10.6 11 17.2 11 24 C9.35 24 7.7 24 6 24 C6 24.66 6 25.32 6 26 C5.34 26 4.68 26 4 26 C4 26.66 4 27.32 4 28 C2.68 28 1.36 28 0 28 C0.33 25.69 0.66 23.38 1 21 C0.01 21 -0.98 21 -2 21 C-2 21.99 -2 22.98 -2 24 C-2.66 24 -3.32 24 -4 24 C-4.33730842 22.56342755 -4.66969591 21.12569907 -5 19.6875 C-5.2784375 18.48673828 -5.2784375 18.48673828 -5.5625 17.26171875 C-6 15 -6 15 -6 12 C-5.34 11.34 -4.68 10.68 -4 10 C-3.35232207 7.42938689 -3.35232207 7.42938689 -3 5 C-2.34 5 -1.68 5 -1 5 C-0.67 3.35 -0.34 1.7 0 0 Z " fill="#090909" transform="translate(713,691)"/>
<path d="M0 0 C1.98 0 3.96 0 6 0 C6 14.19 6 28.38 6 43 C4.02 43 2.04 43 0 43 C0 28.81 0 14.62 0 0 Z " fill="#F3F3F3" transform="translate(515,687)"/>
<path d="M0 0 C1.98 0 3.96 0 6 0 C6 14.19 6 28.38 6 43 C4.02 43 2.04 43 0 43 C0 28.81 0 14.62 0 0 Z " fill="#F9F9F9" transform="translate(301,687)"/>
<path d="M0 0 C16.17 0 32.34 0 49 0 C49 0.33 49 0.66 49 1 C39.1 1 29.2 1 19 1 C19 2.32 19 3.64 19 5 C20.32 5.33 21.64 5.66 23 6 C23 12.27 23 18.54 23 25 C21.02 25.99 21.02 25.99 19 27 C18.34 27.66 17.68 28.32 17 29 C17 28.01 17 27.02 17 26 C16.01 26 15.02 26 14 26 C14 19.07 14 12.14 14 5 C14.99 5 15.98 5 17 5 C17 3.68 17 2.36 17 1 C11.39 1 5.78 1 0 1 C0 0.67 0 0.34 0 0 Z " fill="#272727" transform="translate(855,690)"/>
<path d="M0 0 C10.89 0 21.78 0 33 0 C33 0.33 33 0.66 33 1 C28.38 1 23.76 1 19 1 C19 2.32 19 3.64 19 5 C19.99 5 20.98 5 22 5 C22 11.6 22 18.2 22 25 C21.01 25.33 20.02 25.66 19 26 C18.34 26.99 17.68 27.98 17 29 C17 27.68 17 26.36 17 25 C15.68 25 14.36 25 13 25 C13 18.4 13 11.8 13 5 C14.32 5 15.64 5 17 5 C17 3.68 17 2.36 17 1 C11.39 1 5.78 1 0 1 C0 0.67 0 0.34 0 0 Z " fill="#151515" transform="translate(775,690)"/>
<path d="M0 0 C5.61 0 11.22 0 17 0 C17.33 1.65 17.66 3.3 18 5 C19.32 5.33 20.64 5.66 22 6 C22 12.27 22 18.54 22 25 C20.68 25 19.36 25 18 25 C17.67 26.65 17.34 28.3 17 30 C16.67 30 16.34 30 16 30 C16 28.35 16 26.7 16 25 C15.01 25 14.02 25 13 25 C13 18.4 13 11.8 13 5 C13.99 4.67 14.98 4.34 16 4 C16 3.01 16 2.02 16 1 C10.72 1 5.44 1 0 1 C0 0.67 0 0.34 0 0 Z " fill="#111111" transform="translate(357,690)"/>
<path d="M0 0 C2.24197388 1.77489599 2.94326323 2.62175489 3.375 5.5 C3 8 3 8 1.6875 9.8125 C0 11 0 11 -3 11 C-3.33 12.65 -3.66 14.3 -4 16 C-2.68 16 -1.36 16 0 16 C0 17.65 0 19.3 0 21 C-10.23 21 -20.46 21 -31 21 C-31 19.35 -31 17.7 -31 16 C-30.01 16.33 -29.02 16.66 -28 17 C-28.66 17 -29.32 17 -30 17 C-30 17.99 -30 18.98 -30 20 C-24.39 20 -18.78 20 -13 20 C-13 19.01 -13 18.02 -13 17 C-14.32 16.67 -15.64 16.34 -17 16 C-14.69 16 -12.38 16 -10 16 C-9.9175 15.34 -9.835 14.68 -9.75 14 C-8.75240209 10.00960837 -6.92833317 6.61450357 -5 3 C-4.01 3 -3.02 3 -2 3 C-1.67 2.34 -1.34 1.68 -1 1 C-0.67 0.67 -0.34 0.34 0 0 Z " fill="#E3E3E3" transform="translate(475,699)"/>
<path d="M0 0 C0.495 2.475 0.495 2.475 1 5 C2.32 5 3.64 5 5 5 C3.9318153 10.11365014 2.76892524 15.07227969 1 20 C0.34 20 -0.32 20 -1 20 C-1.508783 18.44033782 -2.00663469 16.87710759 -2.5 15.3125 C-2.7784375 14.44238281 -3.056875 13.57226562 -3.34375 12.67578125 C-3.99850805 10.00608323 -4.11831495 7.73603316 -4 5 C-3.01 5 -2.02 5 -1 5 C-1 3.68 -1 2.36 -1 1 C-6.61 1 -12.22 1 -18 1 C-18.33 4.3 -18.66 7.6 -19 11 C-19.33 11 -19.66 11 -20 11 C-20 7.7 -20 4.4 -20 1 C-29.9 1 -39.8 1 -50 1 C-50 0.67 -50 0.34 -50 0 C-33.27002645 -0.73927037 -16.72264439 -1.27879045 0 0 Z " fill="#0B0B0B" transform="translate(133,690)"/>
<path d="M0 0 C2.31 0.33 4.62 0.66 7 1 C8.5171199 4.03423981 8.18439257 7.17504794 8.1875 10.5 C8.19974609 11.18964844 8.21199219 11.87929688 8.22460938 12.58984375 C8.22988695 14.39477494 8.12184458 16.19917842 8 18 C7.34 18.66 6.68 19.32 6 20 C4.02 20 2.04 20 0 20 C0 13.4 0 6.8 0 0 Z " fill="#121212" transform="translate(422,695)"/>
<path d="M0 0 C10.23 0 20.46 0 31 0 C31 3.96 31 7.92 31 12 C29.68 12 28.36 12 27 12 C26.7525 11.21625 26.505 10.4325 26.25 9.625 C25.11295988 6.54375423 25.11295988 6.54375423 21 5 C21 11.6 21 18.2 21 25 C20.67 25 20.34 25 20 25 C19.97112488 21.35418313 19.95324415 17.70839537 19.9375 14.0625 C19.92912109 13.02158203 19.92074219 11.98066406 19.91210938 10.90820312 C19.90727539 9.42416992 19.90727539 9.42416992 19.90234375 7.91015625 C19.89448853 6.53549194 19.89448853 6.53549194 19.88647461 5.13305664 C20 3 20 3 21 2 C14.4 1.67 7.8 1.34 1 1 C1 4.63 1 8.26 1 12 C0.67 12 0.34 12 0 12 C0 8.04 0 4.08 0 0 Z " fill="#CCCCCC" transform="translate(613,690)"/>
<path d="M0 0 C2.31 0 4.62 0 7 0 C7 6.6 7 13.2 7 20 C5.68 20 4.36 20 3 20 C2.67 20.66 2.34 21.32 2 22 C2 20.68 2 19.36 2 18 C1.01 18 0.02 18 -1 18 C-0.835 17.505 -0.67 17.01 -0.5 16.5 C0.56421833 11.17890833 0.11232641 6.24382448 -1 1 C-0.67 0.67 -0.34 0.34 0 0 Z " fill="#080808" transform="translate(441,695)"/>
<path d="M0 0 C1.65 0 3.3 0 5 0 C5 3.96 5 7.92 5 12 C-4.9 12 -14.8 12 -25 12 C-25 10.35 -25 8.7 -25 7 C-22.525 7.495 -22.525 7.495 -20 8 C-20.66 8.66 -21.32 9.32 -22 10 C-16.06 10.33 -10.12 10.66 -4 11 C-4 10.34 -4 9.68 -4 9 C-6.64 8.67 -9.28 8.34 -12 8 C-12 7.67 -12 7.34 -12 7 C-8.37 7 -4.74 7 -1 7 C-0.67 4.69 -0.34 2.38 0 0 Z " fill="#ECECEC" transform="translate(108,708)"/>
<path d="M0 0 C1.051875 0.185625 2.10375 0.37125 3.1875 0.5625 C7.21712933 1.22231967 7.21712933 1.22231967 12 0 C12 3.63 12 7.26 12 11 C10.35 11 8.7 11 7 11 C6.71125 10.360625 6.4225 9.72125 6.125 9.0625 C5.17176549 6.84793921 5.17176549 6.84793921 3 6 C-0.5 5.66666667 -0.5 5.66666667 -4 6 C-4.66 6.99 -5.32 7.98 -6 9 C-6.33 7.35 -6.66 5.7 -7 4 C-3.375 1 -3.375 1 0 1 C0 0.67 0 0.34 0 0 Z " fill="#F2F2F2" transform="translate(265,690)"/>
<path d="M0 0 C1.65 0 3.3 0 5 0 C5 3.96 5 7.92 5 12 C-5.23 12 -15.46 12 -26 12 C-26 11.67 -26 11.34 -26 11 C-25.03175293 10.99383667 -25.03175293 10.99383667 -24.04394531 10.98754883 C-21.11170672 10.95459937 -18.18154243 10.88395635 -15.25 10.8125 C-14.23421875 10.80669922 -13.2184375 10.80089844 -12.171875 10.79492188 C-6.17661978 10.72530091 -6.17661978 10.72530091 -1.27734375 7.58984375 C0.2336784 5.13716327 0.2336784 5.13716327 -0.3125 2.75 C-0.539375 2.1725 -0.76625 1.595 -1 1 C-0.67 0.67 -0.34 0.34 0 0 Z " fill="#EAEAEA" transform="translate(570,708)"/>
<path d="M0 0 C2.40316291 3.60474436 2.24312609 5.20689591 2.22705078 9.4909668 C2.22734283 10.1448941 2.22763489 10.79882141 2.22793579 11.4725647 C2.2265437 13.63158489 2.21098857 15.79025893 2.1953125 17.94921875 C2.19158193 19.44708569 2.18873517 20.94495507 2.18673706 22.44282532 C2.17910403 26.38350167 2.15945845 30.32403038 2.1373291 34.26464844 C2.11686353 38.28643802 2.10773382 42.30825147 2.09765625 46.33007812 C2.07621218 54.2201198 2.04208029 62.11004153 2 70 C2.66 70 3.32 70 4 70 C4.33 71.65 4.66 73.3 5 75 C3.35 74.34 1.7 73.68 0 73 C0 48.91 0 24.82 0 0 Z " fill="#EAEAEA" transform="translate(78,557)"/>
<path d="M0 0 C5.28 1.98 10.56 3.96 16 6 C16 7.32 16 8.64 16 10 C15 11 15 11 12.25 11.3125 C8.28712279 10.93145411 6.8176055 9.73710248 4 7 C3.67 6.34 3.34 5.68 3 5 C0.47266765 4.34444881 0.47266765 4.34444881 -2 4 C-1.34 3.67 -0.68 3.34 0 3 C0 2.01 0 1.02 0 0 Z " fill="#080808" transform="translate(252,705)"/>
<path d="M0 0 C0 3.3 0 6.6 0 10 C-1.65 10 -3.3 10 -5 10 C-5.61875 8.7934375 -5.61875 8.7934375 -6.25 7.5625 C-7.71050761 4.81725061 -7.71050761 4.81725061 -10.18359375 4.4453125 C-12.46128799 4.21079172 -14.71123589 4.05278072 -17 4 C-17 3.67 -17 3.34 -17 3 C-16.236875 2.87625 -15.47375 2.7525 -14.6875 2.625 C-3.02319588 -0.08762887 -3.02319588 -0.08762887 0 0 Z " fill="#F7F7F7" transform="translate(113,691)"/>
<path d="M0 0 C2.9225738 3.65321725 4.79880946 6.24751971 6.75 10.3125 C7.39195312 11.63701172 7.39195312 11.63701172 8.046875 12.98828125 C8.36140625 13.65214844 8.6759375 14.31601562 9 15 C7.68 16.32 6.36 17.64 5 19 C4.67 17.68 4.34 16.36 4 15 C2.68 15 1.36 15 0 15 C0 10.05 0 5.1 0 0 Z " fill="#0B0B0B" transform="translate(587,700)"/>
<path d="M0 0 C1.32 0 2.64 0 4 0 C4 4.62 4 9.24 4 14 C2.68 14 1.36 14 0 14 C-0.33 12.35 -0.66 10.7 -1 9 C-2.32 8.67 -3.64 8.34 -5 8 C-3.98379995 4.95139986 -3.22608429 4.13333078 -1 2 C-0.67 1.34 -0.34 0.68 0 0 Z " fill="#E8E8E8" transform="translate(166,698)"/>
<path d="M0 0 C1.43655854 -0.08131463 2.8744483 -0.13933559 4.3125 -0.1875 C5.51326172 -0.23970703 5.51326172 -0.23970703 6.73828125 -0.29296875 C9 0 9 0 10.79296875 1.32421875 C12 3 12 3 12 6 C13.65 6 15.3 6 17 6 C17 6.33 17 6.66 17 7 C15.02 7 13.04 7 11 7 C10.67 6.34 10.34 5.68 10 5 C9.67 8.96 9.34 12.92 9 17 C8.67 17 8.34 17 8 17 C8 12.38 8 7.76 8 3 C6.68 3 5.36 3 4 3 C3.67 4.65 3.34 6.3 3 8 C2.01 8 1.02 8 0 8 C0 5.36 0 2.72 0 0 Z " fill="#0B0B0B" transform="translate(96,695)"/>
<path d="M0 0 C1.8871875 0.0309375 1.8871875 0.0309375 3.8125 0.0625 C3.8125 3.6925 3.8125 7.3225 3.8125 11.0625 C2.4925 11.0625 1.1725 11.0625 -0.1875 11.0625 C-0.435 10.299375 -0.6825 9.53625 -0.9375 8.75 C-2.3127865 5.79313402 -3.53886487 4.8567367 -6.1875 3.0625 C-6.5175 2.4025 -6.8475 1.7425 -7.1875 1.0625 C-4.43671116 0.14557039 -2.82801087 -0.04636083 0 0 Z " fill="#F9F9F9" transform="translate(970.1875,690.9375)"/>
<path d="M0 0 C2.55820816 3.41094421 4.32943579 6.45129095 6.1875 10.25 C6.71730469 11.32765625 7.24710938 12.4053125 7.79296875 13.515625 C8.19128906 14.33546875 8.58960938 15.1553125 9 16 C6.03 15.67 3.06 15.34 0 15 C0 10.05 0 5.1 0 0 Z " fill="#090909" transform="translate(191,700)"/>
<path d="M0 0 C0.33 0 0.66 0 1 0 C1 5.94 1 11.88 1 18 C0.01 18 -0.98 18 -2 18 C-2.33 19.32 -2.66 20.64 -3 22 C-5.55806622 17.82278324 -4.75673341 15.20694979 -3.71484375 10.6171875 C-2.71560454 6.95877071 -1.43062927 3.51154457 0 0 Z " fill="#292929" transform="translate(859,698)"/>
<path d="M0 0 C1.98 0 3.96 0 6 0 C7.21693876 2.43387753 7.31959896 4.41838846 7.5625 7.125 C7.64628906 8.03507813 7.73007812 8.94515625 7.81640625 9.8828125 C7.87699219 10.58148437 7.93757812 11.28015625 8 12 C6.68 12.33 5.36 12.66 4 13 C4 11.35 4 9.7 4 8 C2.68 8 1.36 8 0 8 C0 5.36 0 2.72 0 0 Z " fill="#070707" transform="translate(693,707)"/>
<path d="M0 0 C3.6875 0.3125 3.6875 0.3125 6.125 2.1875 C7.6875 4.3125 7.6875 4.3125 7.6875 6.3125 C8.3475 6.6425 9.0075 6.9725 9.6875 7.3125 C6.22316321 8.46727893 5.00637201 8.11398365 1.5625 7.125 C0.67304688 6.88394531 -0.21640625 6.64289062 -1.1328125 6.39453125 C-3.3125 5.3125 -3.3125 5.3125 -4.1796875 3.26171875 C-4.24542969 2.29685547 -4.24542969 2.29685547 -4.3125 1.3125 C-3.3125 0.3125 -3.3125 0.3125 0 0 Z " fill="#131313" transform="translate(264.3125,694.6875)"/>
<path d="M0 0 C0 0.33 0 0.66 0 1 C-5.61 1 -11.22 1 -17 1 C-17.33 4.3 -17.66 7.6 -18 11 C-18.33 11 -18.66 11 -19 11 C-19 7.7 -19 4.4 -19 1 C-28.9 1 -38.8 1 -49 1 C-49 0.67 -49 0.34 -49 0 C-32.60950161 -0.71958286 -16.378736 -1.34082851 0 0 Z " fill="#646464" transform="translate(132,690)"/>
<path d="M0 0 C1.43655854 -0.08131463 2.8744483 -0.13933559 4.3125 -0.1875 C5.51326172 -0.23970703 5.51326172 -0.23970703 6.73828125 -0.29296875 C9.47851584 0.06198392 10.29171079 0.89366282 12 3 C11.34 4.65 10.68 6.3 10 8 C9.67 8 9.34 8 9 8 C9 6.35 9 4.7 9 3 C7.68 3 6.36 3 5 3 C4.67 4.32 4.34 5.64 4 7 C2.68 7 1.36 7 0 7 C0 4.69 0 2.38 0 0 Z " fill="#040404" transform="translate(887,695)"/>
<path d="M0 0 C1.32 0 2.64 0 4 0 C4 1.65 4 3.3 4 5 C5.65 5 7.3 5 9 5 C9.33 4.34 9.66 3.68 10 3 C10.66 3.33 11.32 3.66 12 4 C11.67 5.32 11.34 6.64 11 8 C7.37 8 3.74 8 0 8 C0 5.36 0 2.72 0 0 Z " fill="#070707" transform="translate(96,707)"/>
<path d="M0 0 C2.83366268 2.83366268 3.34654545 6.16330645 4.3125 9.9375 C4.51939453 10.66646484 4.72628906 11.39542969 4.93945312 12.14648438 C5.48828125 14.27734375 5.48828125 14.27734375 6 18 C4.60546875 20.00390625 4.60546875 20.00390625 3 21 C3 19.35 3 17.7 3 16 C2.01 16 1.02 16 0 16 C0 10.72 0 5.44 0 0 Z " fill="#121212" transform="translate(340,699)"/>
<path d="M0 0 C1.43655854 -0.08131463 2.8744483 -0.13933559 4.3125 -0.1875 C5.51326172 -0.23970703 5.51326172 -0.23970703 6.73828125 -0.29296875 C9.47851584 0.06198392 10.29171079 0.89366282 12 3 C8.86650268 4.04449911 8.01031744 3.93423645 5 3 C4.67 4.65 4.34 6.3 4 8 C2.68 8 1.36 8 0 8 C0 5.36 0 2.72 0 0 Z " fill="#101010" transform="translate(557,695)"/>
<path d="M0 0 C1.32 0 2.64 0 4 0 C4.33 1.65 4.66 3.3 5 5 C7.31 5.33 9.62 5.66 12 6 C11.67 6.66 11.34 7.32 11 8 C7.37 8 3.74 8 0 8 C0 5.36 0 2.72 0 0 Z " fill="#060606" transform="translate(557,707)"/>
<path d="M0 0 C3.3 0 6.6 0 10 0 C10 0.99 10 1.98 10 3 C8.35 3 6.7 3 5 3 C4.67 4.65 4.34 6.3 4 8 C2.68 8 1.36 8 0 8 C0 5.36 0 2.72 0 0 Z " fill="#181818" transform="translate(388,695)"/>
<path d="M0 0 C1.32 0 2.64 0 4 0 C4 3.63 4 7.26 4 11 C2.35 11 0.7 11 -1 11 C-2.26264601 6.70700357 -1.62950412 4.12168689 0 0 Z " fill="#F8F8F8" transform="translate(900,708)"/>
<path d="M0 0 C1.32 0 2.64 0 4 0 C4.33 1.65 4.66 3.3 5 5 C6.65 5.33 8.3 5.66 10 6 C10 6.66 10 7.32 10 8 C6.7 8 3.4 8 0 8 C0 5.36 0 2.72 0 0 Z " fill="#080808" transform="translate(659,707)"/>
<path d="M0 0 C2.86632944 2.86632944 3.2315668 6.29316426 4.125 10.125 C4.39763672 11.25615234 4.39763672 11.25615234 4.67578125 12.41015625 C5.12354709 14.27191946 5.56260722 16.13577253 6 18 C5.34 18 4.68 18 4 18 C3.67 17.34 3.34 16.68 3 16 C2.01 15.67 1.02 15.34 0 15 C0 10.05 0 5.1 0 0 Z " fill="#0D0D0D" transform="translate(839,700)"/>
<path d="M0 0 C0.33 0 0.66 0 1 0 C1 5.61 1 11.22 1 17 C0.01 16.67 -0.98 16.34 -2 16 C-2.66 16.33 -3.32 16.66 -4 17 C-3.35729017 11.0870696 -1.80996216 5.65755469 0 0 Z " fill="#131313" transform="translate(360,698)"/>
<path d="M0 0 C0 4.95 0 9.9 0 15 C-2.85442578 11.19409895 -4.25372947 8.32409846 -6 4 C-2.25 0 -2.25 0 0 0 Z " fill="#0B0B0B" transform="translate(933,695)"/>
<path d="M0 0 C1.32 0 2.64 0 4 0 C4.33 1.65 4.66 3.3 5 5 C6.32 5 7.64 5 9 5 C8.67 5.99 8.34 6.98 8 8 C5.36 8 2.72 8 0 8 C0 5.36 0 2.72 0 0 Z " fill="#060606" transform="translate(887,707)"/>
<path d="M0 0 C1.99954746 -0.04254356 4.00041636 -0.04080783 6 0 C7 1 7 1 7.125 3.5 C7 6 7 6 6 7 C4.00041636 7.04080783 1.99954746 7.04254356 0 7 C0 4.69 0 2.38 0 0 Z " fill="#040404" transform="translate(693,695)"/>
<path d="M0 0 C2.97 0 5.94 0 9 0 C9 0.99 9 1.98 9 3 C7.68 3 6.36 3 5 3 C4.34 4.65 3.68 6.3 3 8 C2.01 8 1.02 8 0 8 C0 5.36 0 2.72 0 0 Z " fill="#0C0C0C" transform="translate(161,695)"/>
<path d="M0 0 C2.475 0.495 2.475 0.495 5 1 C4.34 1.66 3.68 2.32 3 3 C16.365 3.495 16.365 3.495 30 4 C30 4.33 30 4.66 30 5 C20.1 5 10.2 5 0 5 C0 3.35 0 1.7 0 0 Z " fill="#D4D4D4" transform="translate(83,715)"/>
<path d="M0 0 C0.99 0.33 1.98 0.66 3 1 C3 1.99 3 2.98 3 4 C-0.96 4 -4.92 4 -9 4 C-9 3.01 -9 2.02 -9 1 C-5.54348293 -0.63224417 -3.63333393 -1.33222244 0 0 Z " fill="#FCFCFC" transform="translate(191,715)"/>
<path d="M0 0 C2.475 0.495 2.475 0.495 5 1 C5.66 2.98 6.32 4.96 7 7 C6 8 6 8 2.9375 8.0625 C1.968125 8.041875 0.99875 8.02125 0 8 C0 5.36 0 2.72 0 0 Z " fill="#101010" transform="translate(388,707)"/>
<path d="M0 0 C0.33 0 0.66 0 1 0 C1 3.3 1 6.6 1 10 C2.32 10 3.64 10 5 10 C4.34 12.31 3.68 14.62 3 17 C2.67 16.34 2.34 15.68 2 15 C1.34 15 0.68 15 0 15 C0 10.05 0 5.1 0 0 Z " fill="#282828" transform="translate(667,698)"/>
<path d="M0 0 C1.98 0.99 1.98 0.99 4 2 C4 2.99 4 3.98 4 5 C5.65 5 7.3 5 9 5 C9 5.33 9 5.66 9 6 C7.02 6 5.04 6 3 6 C2.67 5.34 2.34 4.68 2 4 C1.67 7.96 1.34 11.92 1 16 C0.67 16 0.34 16 0 16 C0 10.72 0 5.44 0 0 Z " fill="#262626" transform="translate(104,696)"/>
<path d="M0 0 C0.33 0 0.66 0 1 0 C1 4.62 1 9.24 1 14 C-3 9 -3 9 -2.75 6.6875 C-2.5025 6.130625 -2.255 5.57375 -2 5 C-1.34 5 -0.68 5 0 5 C0 3.35 0 1.7 0 0 Z " fill="#0E0E0E" transform="translate(602,695)"/>
<path d="M0 0 C6 7.71428571 6 7.71428571 6 11 C4.02 10.34 2.04 9.68 0 9 C0 6.03 0 3.06 0 0 Z " fill="#101010" transform="translate(191,700)"/>
<path d="M0 0 C2.31 0 4.62 0 7 0 C7 0.33 7 0.66 7 1 C5.35 1 3.7 1 2 1 C1.34 3.31 0.68 5.62 0 8 C-0.99 7.67 -1.98 7.34 -3 7 C-2.67 5.35 -2.34 3.7 -2 2 C-1.34 2 -0.68 2 0 2 C0 1.34 0 0.68 0 0 Z " fill="#1E1E1E" transform="translate(898,707)"/>
<path d="M0 0 C1.65 0 3.3 0 5 0 C4.01 1.485 4.01 1.485 3 3 C6.3 3.33 9.6 3.66 13 4 C13 4.33 13 4.66 13 5 C8.71 5 4.42 5 0 5 C0 3.35 0 1.7 0 0 Z " fill="#DADADA" transform="translate(908,715)"/>
<path d="M0 0 C1.625 2 1.625 2 3 4 C2.05125 4.103125 1.1025 4.20625 0.125 4.3125 C-3.29107501 4.68539295 -3.29107501 4.68539295 -5 8 C-5.33 6.35 -5.66 4.7 -6 3 C-2.25 0 -2.25 0 0 0 Z " fill="#D6D6D6" transform="translate(264,691)"/>
<path d="M0 0 C0.99 0.99 1.98 1.98 3 3 C2.67 3.33 2.34 3.66 2 4 C1.95907063 6.33297433 1.95758277 8.66705225 2 11 C1.01 10.67 0.02 10.34 -1 10 C-1.02689216 8.52093108 -1.04634621 7.04172517 -1.0625 5.5625 C-1.07410156 4.73878906 -1.08570313 3.91507813 -1.09765625 3.06640625 C-1 1 -1 1 0 0 Z " fill="#080808" transform="translate(249,692)"/>
<path d="M0 0 C0.33 0 0.66 0 1 0 C1 3.63 1 7.26 1 11 C-0.32 11 -1.64 11 -3 11 C-2.125 6.25 -2.125 6.25 -1 4 C-0.64830932 2.67139075 -0.31229724 1.33841672 0 0 Z " fill="#EBEBEB" transform="translate(396,701)"/>
<path d="M0 0 C0.66 0 1.32 0 2 0 C2 2.31 2 4.62 2 7 C0.68 7 -0.64 7 -2 7 C-1.125 1.125 -1.125 1.125 0 0 Z " fill="#E5E5E5" transform="translate(102,705)"/>
<path d="M0 0 C0.99 0.495 0.99 0.495 2 1 C1.67 1.99 1.34 2.98 1 4 C2.32 3.67 3.64 3.34 5 3 C4.67 4.32 4.34 5.64 4 7 C2.68 7.33 1.36 7.66 0 8 C0 5.36 0 2.72 0 0 Z " fill="#212121" transform="translate(659,695)"/>
<path d="M0 0 C3.465 1.485 3.465 1.485 7 3 C6.01 3.495 6.01 3.495 5 4 C4.67 4.99 4.34 5.98 4 7 C3.67 6.34 3.34 5.68 3 5 C0.47266765 4.34444881 0.47266765 4.34444881 -2 4 C-1.34 3.67 -0.68 3.34 0 3 C0 2.01 0 1.02 0 0 Z " fill="#1B1B1B" transform="translate(252,705)"/>
<path d="M0 0 C1.41377341 2.63904371 2.37240135 5.07120629 3 8 C1.35 8 -0.3 8 -2 8 C-1.34 5.36 -0.68 2.72 0 0 Z " fill="#181818" transform="translate(756,698)"/>
<path d="M0 0 C1.65 0 3.3 0 5 0 C5 1.33333333 5 2.66666667 5 4 C3.35 4 1.7 4 0 4 C0 2.68 0 1.36 0 0 Z " fill="#E3E3E3" transform="translate(619,715)"/>
<path d="M0 0 C0.99 0.33 1.98 0.66 3 1 C3 2.65 3 4.3 3 6 C1.68 6.33 0.36 6.66 -1 7 C-0.67 4.69 -0.34 2.38 0 0 Z " fill="#0C0C0C" transform="translate(357,708)"/>
<path d="M0 0 C1.5 1.25 1.5 1.25 3 3 C3 4.32 3 5.64 3 7 C1.68 7 0.36 7 -1 7 C-0.67 4.69 -0.34 2.38 0 0 Z " fill="#181818" transform="translate(475,699)"/>
<path d="M0 0 C0.33 0 0.66 0 1 0 C1 3.3 1 6.6 1 10 C-2 6 -2 6 -2 2 C-1.34 2 -0.68 2 0 2 C0 1.34 0 0.68 0 0 Z " fill="#141414" transform="translate(932,700)"/>
<path d="M0 0 C1.65 0 3.3 0 5 0 C4.67 1.65 4.34 3.3 4 5 C2.68 4.67 1.36 4.34 0 4 C0 2.68 0 1.36 0 0 Z " fill="#E5E5E5" transform="translate(375,691)"/>
<path d="M0 0 C0.99 0.33 1.98 0.66 3 1 C3.33 2.65 3.66 4.3 4 6 C2.68 6.33 1.36 6.66 0 7 C-0.38133299 5.0085944 -0.71325582 3.00720923 -1 1 C-0.67 0.67 -0.34 0.34 0 0 Z " fill="#121212" transform="translate(697,713)"/>
<path d="M0 0 C1.65 0 3.3 0 5 0 C4.34 1.32 3.68 2.64 3 4 C1.68 4 0.36 4 -1 4 C-0.67 2.68 -0.34 1.36 0 0 Z " fill="#040404" transform="translate(261,695)"/>
<path d="M0 0 C0.99 0.33 1.98 0.66 3 1 C2.01 2.485 2.01 2.485 1 4 C-1.1640625 4.29296875 -1.1640625 4.29296875 -3.625 4.1875 C-4.44226563 4.16042969 -5.25953125 4.13335938 -6.1015625 4.10546875 C-7.04128906 4.05326172 -7.04128906 4.05326172 -8 4 C-8 3.67 -8 3.34 -8 3 C-7.236875 2.87625 -6.47375 2.7525 -5.6875 2.625 C-2.79732864 2.11897208 -2.79732864 2.11897208 0 0 Z " fill="#DBDBDB" transform="translate(104,691)"/>
<path d="M0 0 C0 3.10551666 -0.5393715 4.35261084 -2 7 C-2 6.34 -2 5.68 -2 5 C-3.32 4.34 -4.64 3.68 -6 3 C-4.02 2.01 -2.04 1.02 0 0 Z " fill="#ECECEC" transform="translate(91,358)"/>
<path d="M0 0 C0.33 0 0.66 0 1 0 C1 4.29 1 8.58 1 13 C0.67 13 0.34 13 0 13 C-0.22786458 11.01432292 -0.45572917 9.02864583 -0.68359375 7.04296875 C-0.97170735 4.80603607 -0.97170735 4.80603607 -2 2 C-1.34 2 -0.68 2 0 2 C0 1.34 0 0.68 0 0 Z " fill="#0B0B0B" transform="translate(227,699)"/>
<path d="M0 0 C0.99 0.33 1.98 0.66 3 1 C3 1.66 3 2.32 3 3 C5.97 3 8.94 3 12 3 C12 3.33 12 3.66 12 4 C8.7 4 5.4 4 2 4 C1.34 2.68 0.68 1.36 0 0 Z " fill="#D4D4D4" transform="translate(812,716)"/>
<path d="M0 0 C1.65 0 3.3 0 5 0 C4.67 1.32 4.34 2.64 4 4 C2.68 4 1.36 4 0 4 C0 2.68 0 1.36 0 0 Z " fill="#DFDFDF" transform="translate(949,715)"/>
<path d="M0 0 C2.475 0.495 2.475 0.495 5 1 C4.67 1.99 4.34 2.98 4 4 C2.68 4 1.36 4 0 4 C0 2.68 0 1.36 0 0 Z " fill="#CECECE" transform="translate(774,691)"/>
<path d="M0 0 C1.32 0 2.64 0 4 0 C4.33 0.99 4.66 1.98 5 3 C3.35 3.33 1.7 3.66 0 4 C0 2.68 0 1.36 0 0 Z " fill="#D9D9D9" transform="translate(444,691)"/>
</svg>
